<?xml version="1.0" encoding="UTF-8" standalone="no"?> <svg id="Layer_1" data-name="Layer 1" xmlns="http://www.w3.org/2000/svg" viewBox="0 0 128 128"><defs><style>.cls-1{fill:#2d3e50;}.cls-2{fill:#2e79bd;}</style></defs><title>b</title><path class="cls-1" d="M112.58223,78.23614H63.58352a3.94316,3.94316,0,0,0,0,7.88632H75.8911a11.95553,11.95553,0,0,0,1.12382,4.76136l-19.913,14.4714L28.90338,70.266l14.253-27.49934a5.65925,5.65925,0,0,0-2.2087-7.51325v0a5.65934,5.65934,0,0,0-7.601,1.88759L14.17076,67.51073l-1.99132,3.14961L14.363,74.97317l22.10637,43.64094H15.41777a3.94316,3.94316,0,0,0,0,7.88632H95.252a3.94316,3.94316,0,0,0,0-7.88632H70.144L90.93427,97.62172a12.20955,12.20955,0,0,0,9.34037-11.49926h12.30758a3.94316,3.94316,0,1,0,0-7.88632Z"/><path class="cls-2" d="M65.12722,56.32164,85.24384,43.477,59.83106,3.195a1.44513,1.44513,0,0,0-1.99574-.44028L56.10648,3.85861a5.21123,5.21123,0,0,0-7.16455-1.53973L43.50137,5.79271A5.21122,5.21122,0,0,0,41.88361,12.94l-1.72886,1.10387a1.4452,1.4452,0,0,0-.44031,1.99577Z"/><path class="cls-2" d="M69.8778,61.099,69.452,63.0235a2.12613,2.12613,0,1,0,4.1524.91612l.42491-1.92588a12.82632,12.82632,0,0,0,5.72329-1.01308l1.05986,1.65985A2.12585,2.12585,0,0,0,84.396,60.37241l-1.05986-1.65985a12.82821,12.82821,0,0,0,3.32578-4.76485l1.92588.42491a2.12613,2.12613,0,0,0,.91612-4.1524l-1.925-.42346a12.8572,12.8572,0,0,0-.36829-3.80649l-20.63241,13.174A12.914,12.914,0,0,0,69.8778,61.099Z"/></svg>