<svg width="24" height="24" viewBox="0 0 24 24" fill="none" xmlns="http://www.w3.org/2000/svg">
<path d="M5.25 2H18.47C18.706 2 18.9324 2.09377 19.0993 2.26067C19.2662 2.42758 19.36 2.65396 19.36 2.89V21.11C19.36 21.346 19.2662 21.5724 19.0993 21.7393C18.9324 21.9062 18.706 22 18.47 22H5.25C5.01396 22 4.78758 21.9062 4.62068 21.7393C4.45377 21.5724 4.36 21.346 4.36 21.11V2.89C4.36 2.65396 4.45377 2.42758 4.62068 2.26067C4.78758 2.09377 5.01396 2 5.25 2Z" fill="#9293A5"/>
<path d="M15 2V22H18.46C18.696 22 18.9224 21.9062 19.0893 21.7393C19.2562 21.5724 19.35 21.346 19.35 21.11V2.89C19.35 2.65568 19.2576 2.43081 19.0929 2.26418C18.9281 2.09756 18.7043 2.00263 18.47 2H15Z" fill="#6F7188"/>
<path d="M17.58 10.83H6.14V20.17H17.58V10.83Z" fill="#EAE2F9"/>
<path d="M17.58 4H6.14V8.71H17.58V4Z" fill="#EAE2F9"/>
<path d="M17.58 10.83H15.01V20.17H17.58V10.83Z" fill="#F94060"/>
<path d="M17.58 4H15.01V8.71H17.58V4Z" fill="#C0C3EE"/>
<path d="M5.25 22.5H18.47C18.6525 22.5 18.8333 22.464 19.0019 22.3942C19.1706 22.3243 19.3238 22.222 19.4529 22.0929C19.582 21.9638 19.6843 21.8106 19.7542 21.6419C19.824 21.4733 19.86 21.2925 19.86 21.11V2.89C19.86 2.70746 19.824 2.52671 19.7542 2.35807C19.6843 2.18943 19.582 2.03619 19.4529 1.90712C19.3238 1.77805 19.1706 1.67566 19.0019 1.60581C18.8333 1.53595 18.6525 1.5 18.47 1.5H5.25C4.88216 1.50262 4.53013 1.6499 4.27002 1.91001C4.00991 2.17013 3.86262 2.52216 3.86 2.89V21.11C3.86 21.4787 4.00645 21.8322 4.26712 22.0929C4.5278 22.3536 4.88135 22.5 5.25 22.5ZM4.86 2.89C4.86254 2.78736 4.90444 2.68963 4.97704 2.61704C5.04963 2.54444 5.14736 2.50254 5.25 2.5H18.47C18.5734 2.5 18.6726 2.54109 18.7458 2.61423C18.8189 2.68737 18.86 2.78657 18.86 2.89V21.11C18.86 21.2134 18.8189 21.3126 18.7458 21.3858C18.6726 21.4589 18.5734 21.5 18.47 21.5H5.25C5.14736 21.4975 5.04963 21.4556 4.97704 21.383C4.90444 21.3104 4.86254 21.2126 4.86 21.11V2.89Z" fill="black"/>
<path d="M6.14 20.67H17.58C17.7126 20.67 17.8398 20.6173 17.9336 20.5235C18.0273 20.4298 18.08 20.3026 18.08 20.17V10.83C18.08 10.6974 18.0273 10.5702 17.9336 10.4764C17.8398 10.3827 17.7126 10.33 17.58 10.33H6.14C6.00739 10.33 5.88021 10.3827 5.78645 10.4764C5.69268 10.5702 5.64 10.6974 5.64 10.83V20.17C5.64 20.3026 5.69268 20.4298 5.78645 20.5235C5.88021 20.6173 6.00739 20.67 6.14 20.67ZM15.51 11.33H17.08V15.16H15.51V11.33ZM15.51 16.16H17.08V19.67H15.51V16.16ZM12.62 11.33H14.51V13.48H12.62V11.33ZM12.62 14.48H14.51V16.48H12.62V14.48ZM12.62 17.48H14.51V19.63H12.62V17.48ZM9.62 11.29H11.62V13.44H9.62V11.29ZM9.62 14.44H11.62V16.44H9.62V14.44ZM9.62 17.44H11.62V19.59H9.62V17.44ZM6.64 11.33H8.58V13.48H6.64V11.33ZM6.64 14.48H8.58V16.48H6.64V14.48ZM6.64 17.48H8.58V19.63H6.64V17.48Z" fill="black"/>
<path d="M6.14 9.21H17.58C17.7126 9.21 17.8398 9.15732 17.9336 9.06355C18.0273 8.96979 18.08 8.84261 18.08 8.71V4C18.08 3.86739 18.0273 3.74021 17.9336 3.64645C17.8398 3.55268 17.7126 3.5 17.58 3.5H6.14C6.00739 3.5 5.88021 3.55268 5.78645 3.64645C5.69268 3.74021 5.64 3.86739 5.64 4V8.71C5.64 8.84261 5.69268 8.96979 5.78645 9.06355C5.88021 9.15732 6.00739 9.21 6.14 9.21ZM6.64 4.5H17.08V8.21H6.64V4.5Z" fill="black"/>
<path d="M15.65 6.76999H15.14C15.0074 6.76999 14.8802 6.82267 14.7864 6.91644C14.6927 7.0102 14.64 7.13738 14.64 7.26999C14.64 7.4026 14.6927 7.52977 14.7864 7.62354C14.8802 7.71731 15.0074 7.76999 15.14 7.76999H15.65C15.7826 7.76999 15.9098 7.71731 16.0036 7.62354C16.0973 7.52977 16.15 7.4026 16.15 7.26999C16.1474 7.13818 16.0939 7.01249 16.0007 6.91927C15.9075 6.82605 15.7818 6.77255 15.65 6.76999Z" fill="black"/>
</svg>
